<?xml version="1.0" encoding="utf-8"?>
<!-- Generator: Adobe Illustrator 22.1.0, SVG Export Plug-In . SVG Version: 6.00 Build 0)  -->
<svg version="1.1" xmlns="http://www.w3.org/2000/svg" xmlns:xlink="http://www.w3.org/1999/xlink" x="0px" y="0px"
	 viewBox="0 0 278.5 130" style="enable-background:new 0 0 278.5 130;" xml:space="preserve">
<style type="text/css">
	.st0{fill:#FFFFFF;stroke:url(#SVGID_1_);stroke-width:2;stroke-miterlimit:10;}
	.st1{fill:#FFFFFF;stroke:url(#SVGID_2_);stroke-width:2;stroke-miterlimit:10;}
	.st2{fill:#FFFFFF;stroke:url(#SVGID_3_);stroke-width:2;stroke-miterlimit:10;}
	.st3{fill:#FFFFFF;stroke:url(#SVGID_4_);stroke-width:2;stroke-miterlimit:10;}
	.st4{fill:url(#SVGID_5_);}
	.st5{fill:url(#SVGID_6_);}
	.st6{fill:url(#SVGID_7_);}
	.st7{fill:url(#SVGID_8_);}
	.st8{fill:url(#SVGID_9_);}
	.st9{fill:url(#SVGID_10_);}
	.st10{fill:url(#SVGID_11_);}
	.st11{fill:url(#SVGID_12_);}
</style>
<g id="Capa_1">
	<title>iwi3 copia</title>
	
		<linearGradient id="SVGID_1_" gradientUnits="userSpaceOnUse" x1="141.7499" y1="116.1617" x2="271.2911" y2="116.1617" gradientTransform="matrix(1 0 0 -1 0 184)">
		<stop  offset="0" style="stop-color:#009FE3"/>
		<stop  offset="0.72" style="stop-color:#6CC04A"/>
		<stop  offset="0.99" style="stop-color:#6CC04A"/>
		<stop  offset="1" style="stop-color:#6CC04A"/>
	</linearGradient>
	<path class="st0" d="M142.7,29.9c0-5.6,4.2-9,9.6-9c5.4,0,9.6,3.4,9.6,9v0.3c0,5.6-4.2,9.1-9.6,9.1c-5.4,0-9.6-3.5-9.6-9.1V29.9z
		 M251,30.5c0-5.6,4.2-9,9.6-9c5.4,0,9.6,3.4,9.6,9v0.3c0,5.6-4.2,9.1-9.6,9.1c-5.4,0-9.6-3.5-9.6-9.1V30.5L251,30.5z M143.8,55
		c0-5.4,3.9-9.6,8.6-9.6c4.8,0,8.6,4.3,8.6,9.6v50.2c0,5.4-3.9,9.6-8.6,9.6c-4.8,0-8.6-4.3-8.6-9.6V55z"/>
	
		<linearGradient id="SVGID_2_" gradientUnits="userSpaceOnUse" x1="249.7403" y1="103.6691" x2="270.9912" y2="103.6691" gradientTransform="matrix(1 0 0 -1 0 184)">
		<stop  offset="0" style="stop-color:#009FE3"/>
		<stop  offset="0.72" style="stop-color:#6CC04A"/>
		<stop  offset="0.99" style="stop-color:#6CC04A"/>
		<stop  offset="1" style="stop-color:#6CC04A"/>
	</linearGradient>
	<path class="st1" d="M250.7,55.2c0-5.3,4.3-9.6,9.6-9.6s9.6,4.3,9.6,9.6l0,0v50.2c0,5.3-4.3,9.6-9.6,9.6s-9.6-4.3-9.6-9.6V55.2z"/>
	
		<linearGradient id="SVGID_3_" gradientUnits="userSpaceOnUse" x1="206.2816" y1="103.6559" x2="241.7409" y2="103.6559" gradientTransform="matrix(1 0 0 -1 -7.516887e-03 183.9971)">
		<stop  offset="0" style="stop-color:#009FE3"/>
		<stop  offset="0.72" style="stop-color:#6CC04A"/>
		<stop  offset="0.99" style="stop-color:#6CC04A"/>
		<stop  offset="1" style="stop-color:#6CC04A"/>
	</linearGradient>
	<path class="st2" d="M234.8,45.7L234.8,45.7c4.5,1.4,7,6.2,5.6,10.6l-16.5,53c-1.4,4.5-6.2,7-10.6,5.6l0,0c-4.5-1.4-7-6.2-5.6-10.6
		l16.5-53C225.5,46.8,230.3,44.3,234.8,45.7z"/>
	
		<linearGradient id="SVGID_4_" gradientUnits="userSpaceOnUse" x1="167.4088" y1="103.6853" x2="213.9325" y2="103.6853" gradientTransform="matrix(1 0 0 -1 0 184)">
		<stop  offset="0" style="stop-color:#009FE3"/>
		<stop  offset="0.72" style="stop-color:#6CC04A"/>
		<stop  offset="0.99" style="stop-color:#6CC04A"/>
		<stop  offset="1" style="stop-color:#6CC04A"/>
	</linearGradient>
	<path class="st3" d="M205.8,66.9c-4.2-0.5-8.3,2.1-9.5,6.2l-1.3,4.1c-0.2,0.7-0.9,1-1.6,0.8c-0.4-0.1-0.7-0.4-0.8-0.8l-6.8-24.3
		c-1.3-4.4-4.3-7.5-8.8-7.5c-4.7,0-8.6,3.8-8.6,8.5c0,0.1,0,0.2,0,0.2c0.1,1.6,0.3,3.2,0.8,4.7l15.5,47.9c1.9,5.9,5.6,8.6,9.9,8.6
		h0.6c0.2,0,0.4-0.1,0.6-0.2c3.3-0.4,6-2.7,7-5.9l9.7-31.4c1.3-4.5-1.3-9.3-5.8-10.6C206.4,67,206.1,67,205.8,66.9z"/>
	
		<linearGradient id="SVGID_5_" gradientUnits="userSpaceOnUse" x1="697.3896" y1="419.8242" x2="689.7365" y2="473.2995" gradientTransform="matrix(1 -9.000000e-02 -9.000000e-02 -1 -577.23 545.64)">
		<stop  offset="0" style="stop-color:#009FE3"/>
		<stop  offset="0.72" style="stop-color:#6CC04A"/>
		<stop  offset="0.99" style="stop-color:#6CC04A"/>
		<stop  offset="1" style="stop-color:#6CC04A"/>
	</linearGradient>
	<path class="st4" d="M65.4,64.2c4.7-16,13.7-21.9,18.8-27.9c8.6-10.2,6-31.7-7.1-30.3l-0.8,0.1C50.2,9.5,65.1,63.1,65.4,64.2
		L65.4,64.2L65.4,64.2z"/>
	
		<linearGradient id="SVGID_6_" gradientUnits="userSpaceOnUse" x1="667.4468" y1="415.6499" x2="659.2364" y2="473.0911" gradientTransform="matrix(1 -9.000000e-02 -9.000000e-02 -1 -577.23 545.64)">
		<stop  offset="0" style="stop-color:#009FE3"/>
		<stop  offset="0.72" style="stop-color:#6CC04A"/>
		<stop  offset="0.99" style="stop-color:#6CC04A"/>
		<stop  offset="1" style="stop-color:#6CC04A"/>
	</linearGradient>
	<path class="st5" d="M64,64.4L64,64.4c-7.7-14.7-5.4-25.2-5.9-33.1C57.1,18.1,40.3,4.4,31.9,14.5l-0.5,0.6C15,35.7,63,63.9,64,64.4
		z"/>
	
		<linearGradient id="SVGID_7_" gradientUnits="userSpaceOnUse" x1="651.4249" y1="413.34" x2="646.6552" y2="446.6321" gradientTransform="matrix(1 -9.000000e-02 -9.000000e-02 -1 -577.23 545.64)">
		<stop  offset="0" style="stop-color:#009FE3"/>
		<stop  offset="0.72" style="stop-color:#6CC04A"/>
		<stop  offset="0.99" style="stop-color:#6CC04A"/>
		<stop  offset="1" style="stop-color:#6CC04A"/>
	</linearGradient>
	<path class="st6" d="M62.7,64.7L62.7,64.7c-16-4.6-22-13.6-28-18.6c-10.2-8.5-31.7-5.8-30.2,7.3c0,0.3,0,0.5,0.1,0.8
		C8.1,80.2,61.6,65,62.7,64.7z"/>
	
		<linearGradient id="SVGID_8_" gradientUnits="userSpaceOnUse" x1="653.6526" y1="384.3482" x2="649.6117" y2="412.6026" gradientTransform="matrix(1 -9.000000e-02 -9.000000e-02 -1 -577.23 545.64)">
		<stop  offset="0" style="stop-color:#009FE3"/>
		<stop  offset="0.72" style="stop-color:#6CC04A"/>
		<stop  offset="0.99" style="stop-color:#6CC04A"/>
		<stop  offset="1" style="stop-color:#6CC04A"/>
	</linearGradient>
	<path class="st7" d="M62.8,66.3L62.8,66.3c-14.5,8.2-25.1,6.1-32.9,6.9c-13.2,1.3-26.4,18.5-16,26.7l0.6,0.5
		C35.6,116.2,62.3,67.4,62.8,66.3z"/>
	
		<linearGradient id="SVGID_9_" gradientUnits="userSpaceOnUse" x1="672.5463" y1="357.7468" x2="664.6896" y2="412.6477" gradientTransform="matrix(1 -9.000000e-02 -9.000000e-02 -1 -577.23 545.64)">
		<stop  offset="0" style="stop-color:#009FE3"/>
		<stop  offset="0.72" style="stop-color:#6CC04A"/>
		<stop  offset="0.99" style="stop-color:#6CC04A"/>
		<stop  offset="1" style="stop-color:#6CC04A"/>
	</linearGradient>
	<path class="st8" d="M64.3,67c-3.6,16.2-12.2,22.8-16.8,29.1c-7.9,10.7-3.9,32,9.1,29.7l0.8-0.2C83.2,120.6,64.7,68.1,64.3,67
		L64.3,67L64.3,67z"/>
	
		<linearGradient id="SVGID_10_" gradientUnits="userSpaceOnUse" x1="703.7747" y1="361.4026" x2="695.8322" y2="416.9037" gradientTransform="matrix(1 -9.000000e-02 -9.000000e-02 -1 -577.23 545.64)">
		<stop  offset="0" style="stop-color:#009FE3"/>
		<stop  offset="0.72" style="stop-color:#6CC04A"/>
		<stop  offset="0.99" style="stop-color:#6CC04A"/>
		<stop  offset="1" style="stop-color:#6CC04A"/>
	</linearGradient>
	<path class="st9" d="M65.2,67L65.2,67c9.4,13.7,8.3,24.4,9.8,32.2c2.5,13.1,20.8,24.7,28,13.6l0.4-0.7
		C117.2,89.8,66.3,67.4,65.2,67z"/>
	
		<linearGradient id="SVGID_11_" gradientUnits="userSpaceOnUse" x1="712.8196" y1="390.2018" x2="708.4999" y2="420.3854" gradientTransform="matrix(1 -9.000000e-02 -9.000000e-02 -1 -577.23 545.64)">
		<stop  offset="0" style="stop-color:#009FE3"/>
		<stop  offset="0.72" style="stop-color:#6CC04A"/>
		<stop  offset="0.99" style="stop-color:#6CC04A"/>
		<stop  offset="1" style="stop-color:#6CC04A"/>
	</linearGradient>
	<path class="st10" d="M124.8,71.8c-0.1-0.3-0.1-0.5-0.2-0.8c-6.2-25.6-57.9-5-59-4.6l0,0c16.4,2.9,23.2,11.3,29.8,15.7
		C106.5,89.5,127.6,84.7,124.8,71.8z"/>
	
		<linearGradient id="SVGID_12_" gradientUnits="userSpaceOnUse" x1="710.9326" y1="420.8849" x2="706.8701" y2="449.2893" gradientTransform="matrix(1 -9.000000e-02 -9.000000e-02 -1 -577.23 545.64)">
		<stop  offset="0" style="stop-color:#009FE3"/>
		<stop  offset="0.72" style="stop-color:#6CC04A"/>
		<stop  offset="0.99" style="stop-color:#6CC04A"/>
		<stop  offset="1" style="stop-color:#6CC04A"/>
	</linearGradient>
	<path class="st11" d="M67.3,64.3L67.3,64.3c14.3-8.5,24.9-6.7,32.7-7.7c13.2-1.6,25.9-19.1,15.4-27l-0.6-0.5
		C93.4,13.9,67.8,63.3,67.3,64.3z"/>
</g>
<g id="Capa_2">
</g>
</svg>
