<svg id="Capa_1" data-name="Capa 1" xmlns="http://www.w3.org/2000/svg" xmlns:xlink="http://www.w3.org/1999/xlink" viewBox="0 0 311.67 183"><defs><style>.cls-1,.cls-2,.cls-3,.cls-4{fill:none;stroke-miterlimit:10;stroke-width:2px;}.cls-1{stroke:url(#Degradado_sin_nombre_3);}.cls-2{stroke:url(#Degradado_sin_nombre_3-2);}.cls-3{stroke:url(#Degradado_sin_nombre_3-3);}.cls-4{stroke:url(#Degradado_sin_nombre_3-4);}.cls-5{fill:url(#Degradado_sin_nombre_4);}.cls-6{fill:url(#Degradado_sin_nombre_4-2);}.cls-7{fill:url(#Degradado_sin_nombre_4-3);}.cls-8{fill:url(#Degradado_sin_nombre_4-4);}.cls-9{fill:url(#Degradado_sin_nombre_4-5);}.cls-10{fill:url(#Degradado_sin_nombre_4-6);}.cls-11{fill:url(#Degradado_sin_nombre_4-7);}.cls-12{fill:url(#Degradado_sin_nombre_4-8);}</style><linearGradient id="Degradado_sin_nombre_3" x1="162.74" y1="98.44" x2="283.77" y2="98.44" gradientUnits="userSpaceOnUse"><stop offset="0" stop-color="#009fe3"/><stop offset="0.72" stop-color="#6cc04a"/><stop offset="0.99" stop-color="#6cc04a"/><stop offset="1" stop-color="#6cc04a"/></linearGradient><linearGradient id="Degradado_sin_nombre_3-2" x1="263.5" y1="110.08" x2="283.46" y2="110.08" xlink:href="#Degradado_sin_nombre_3"/><linearGradient id="Degradado_sin_nombre_3-3" x1="222.96" y1="110.08" x2="256.17" y2="110.08" gradientTransform="translate(-21.87 75.98) rotate(-17.25)" xlink:href="#Degradado_sin_nombre_3"/><linearGradient id="Degradado_sin_nombre_3-4" x1="186.7" y1="110.08" x2="230.28" y2="110.08" xlink:href="#Degradado_sin_nombre_3"/><linearGradient id="Degradado_sin_nombre_4" x1="751.39" y1="-214.3" x2="744.25" y2="-264.19" gradientTransform="matrix(1, -0.09, 0.09, 1, -621.15, 375.05)" xlink:href="#Degradado_sin_nombre_3"/><linearGradient id="Degradado_sin_nombre_4-2" x1="723.42" y1="-210.4" x2="715.76" y2="-263.99" gradientTransform="matrix(1, -0.09, 0.09, 1, -621.15, 375.05)" xlink:href="#Degradado_sin_nombre_3"/><linearGradient id="Degradado_sin_nombre_4-3" x1="708.29" y1="-208.22" x2="703.84" y2="-239.28" gradientTransform="matrix(1, -0.09, 0.09, 1, -621.15, 375.05)" xlink:href="#Degradado_sin_nombre_3"/><linearGradient id="Degradado_sin_nombre_4-4" x1="710.29" y1="-181.16" x2="706.52" y2="-207.52" gradientTransform="matrix(1, -0.09, 0.09, 1, -621.15, 375.05)" xlink:href="#Degradado_sin_nombre_3"/><linearGradient id="Degradado_sin_nombre_4-5" x1="727.9" y1="-156.34" x2="720.57" y2="-207.56" gradientTransform="matrix(1, -0.09, 0.09, 1, -621.15, 375.05)" xlink:href="#Degradado_sin_nombre_3"/><linearGradient id="Degradado_sin_nombre_4-6" x1="757.17" y1="-159.77" x2="749.76" y2="-211.55" gradientTransform="matrix(1, -0.09, 0.09, 1, -621.15, 375.05)" xlink:href="#Degradado_sin_nombre_3"/><linearGradient id="Degradado_sin_nombre_4-7" x1="765.69" y1="-186.65" x2="761.66" y2="-214.81" gradientTransform="matrix(1, -0.09, 0.09, 1, -621.15, 375.05)" xlink:href="#Degradado_sin_nombre_3"/><linearGradient id="Degradado_sin_nombre_4-8" x1="764.03" y1="-215.29" x2="760.24" y2="-241.79" gradientTransform="matrix(1, -0.09, 0.09, 1, -621.15, 375.05)" xlink:href="#Degradado_sin_nombre_3"/></defs><title>iwi3 copia</title><path class="cls-1" d="M163.74,63c0-5.2,3.92-8.39,9-8.39s9,3.19,9,8.39v0.24c0,5.2-3.92,8.51-9,8.51s-9-3.31-9-8.51V63Zm101,0.58c0-5.2,3.92-8.39,9-8.39s9,3.19,9,8.39v0.24c0,5.2-3.92,8.51-9,8.51s-9-3.31-9-8.51V63.62ZM164.69,86.44c0-5,3.6-9,8.06-9s8.06,4,8.06,9v46.8c0,5-3.6,9-8.06,9s-8.06-4-8.06-9V86.44Z"/><path class="cls-2" d="M264.5,86.68a9,9,0,1,1,18,0v46.8a9,9,0,1,1-18,0V86.68Z"/><rect class="cls-3" x="231.64" y="76.25" width="15.85" height="67.66" rx="7.93" ry="7.93" transform="translate(43.41 -66.08) rotate(17.25)"/><path class="cls-4" d="M222.53,97.55a8.13,8.13,0,0,0-8.83,5.77l-1.18,3.79a1.16,1.16,0,0,1-2.22,0l-6.38-22.64c-1.21-4.14-4-7-8.17-7a8,8,0,0,0-8.06,8.15,16.09,16.09,0,0,0,.77,4.37l14.46,44.67c1.77,5.55,5.19,8,9.27,8h0.55a0.9,0.9,0,0,0,.52-0.17,8,8,0,0,0,6.55-5.5l9.09-29.29A8,8,0,0,0,222.53,97.55Z"/><path class="cls-5" d="M91.57,95c4.39-14.89,12.8-20.4,17.53-26,8-9.49,5.62-29.55-6.6-28.26l-0.73.09C77.43,44,91.27,94,91.56,95h0Z"/><path class="cls-6" d="M90.26,95.24h0c-7.22-13.74-5-23.55-5.55-30.88C83.85,52,68.17,39.24,60.3,48.68l-0.46.57C44.55,68.45,89.35,94.71,90.26,95.24Z"/><path class="cls-7" d="M89.09,95.48s0,0,0,0C74.17,91.17,68.61,82.8,63,78.11c-9.54-7.93-29.58-5.43-28.22,6.78q0,0.36.09,0.73C38.13,109.94,88.08,95.77,89.09,95.48Z"/><path class="cls-8" d="M89.2,97h0c-13.52,7.63-23.39,5.73-30.7,6.47-12.34,1.24-24.61,17.29-14.94,24.88l0.58,0.45C63.79,143.52,88.7,98,89.2,97Z"/><path class="cls-9" d="M90.6,97.64c-3.37,15.16-11.38,21.23-15.72,27.15-7.33,10-3.6,29.86,8.51,27.74l0.72-.14c24.07-4.78,6.86-53.76,6.5-54.76h0Z"/><path class="cls-10" d="M91.41,97.63s0,0,0,0c8.77,12.81,7.73,22.81,9.1,30,2.31,12.19,19.36,23,26.08,12.73l0.39-.62C139.93,118.92,92.38,98.06,91.41,97.63Z"/><path class="cls-11" d="M147,102.13q-0.08-.36-0.16-0.72c-5.76-23.86-54-4.67-55-4.28,0,0,0,0,0,0,15.28,2.75,21.67,10.51,27.77,14.61C129.9,118.67,149.58,114.14,147,102.13Z"/><path class="cls-12" d="M93.36,95.15h0c13.35-7.93,23.26-6.26,30.55-7.16,12.31-1.52,24.21-17.84,14.38-25.21l-0.59-.43C117.71,48.1,93.84,94.2,93.36,95.15Z"/></svg>